<svg width="10" height="12" viewBox="0 0 10 12" fill="none" xmlns="http://www.w3.org/2000/svg">
<path d="M4.64688 1.07842L4.64687 1.07828C4.64685 1.03102 4.65632 0.984247 4.67471 0.940718C4.69309 0.89719 4.72003 0.857794 4.75392 0.824865C4.78781 0.791936 4.82796 0.766144 4.872 0.749015C4.91604 0.731887 4.96307 0.723772 5.0103 0.72515C5.10216 0.727831 5.18935 0.766215 5.25336 0.83215C5.31738 0.898086 5.35316 0.986378 5.35313 1.07828V1.07842C5.35313 1.17208 5.31592 1.2619 5.2497 1.32812C5.18347 1.39435 5.09365 1.43155 5 1.43155C4.90635 1.43155 4.81653 1.39435 4.7503 1.32812C4.68408 1.2619 4.64687 1.17208 4.64688 1.07842ZM3.59219 2.83624L3.59219 2.83609C3.59217 2.78884 3.60163 2.74206 3.62002 2.69853C3.6384 2.655 3.66534 2.61561 3.69923 2.58268C3.73312 2.54975 3.77327 2.52396 3.81731 2.50683C3.86135 2.4897 3.90838 2.48158 3.95561 2.48296C4.04747 2.48564 4.13466 2.52403 4.19868 2.58996C4.26269 2.6559 4.29848 2.74419 4.29844 2.83609V2.83624C4.29844 2.92989 4.26123 3.01971 4.19501 3.08593C4.12879 3.15216 4.03897 3.18936 3.94531 3.18936C3.85166 3.18936 3.76184 3.15216 3.69562 3.08593C3.62939 3.01971 3.59219 2.92989 3.59219 2.83624ZM5.70156 3.1878V3.18765L5.70169 3.18704L5.70204 3.18653L5.70256 3.18619L5.70317 3.18609L5.70319 3.18609C5.70347 3.1861 5.70374 3.18618 5.70398 3.18634C5.70408 3.1864 5.70416 3.18648 5.70425 3.18656C5.70453 3.18685 5.70469 3.18724 5.70469 3.18765V3.1878C5.70469 3.18821 5.70452 3.18861 5.70423 3.1889C5.70418 3.18896 5.70412 3.189 5.70407 3.18905C5.7038 3.18925 5.70347 3.18936 5.70312 3.18936C5.70271 3.18936 5.70231 3.1892 5.70202 3.1889C5.70173 3.18861 5.70156 3.18821 5.70156 3.1878ZM5.00005 4.24078L5.00007 4.24078C5.00045 4.24079 5.00082 4.24094 5.00112 4.24125C5.0014 4.24154 5.00156 4.24193 5.00156 4.24234V4.24249C5.00156 4.24274 5.0015 4.24299 5.00138 4.24321C5.00131 4.24335 5.00122 4.24348 5.0011 4.24359C5.00097 4.24373 5.00081 4.24383 5.00065 4.24391C5.00044 4.244 5.00023 4.24405 5 4.24405C4.9998 4.24405 4.9996 4.24401 4.99941 4.24393C4.99922 4.24386 4.99904 4.24374 4.9989 4.24359C4.9986 4.2433 4.99844 4.2429 4.99844 4.24249V4.24234L4.99856 4.24173L4.99891 4.24122L4.99943 4.24088L5.00005 4.24078ZM3.94375 5.64874V5.50376L3.84124 5.40125C3.75209 5.3121 3.65163 5.21142 3.56286 5.10785C3.51162 5.04808 3.47151 4.99548 3.44215 4.9512C3.48213 4.94688 3.5321 4.94405 3.59375 4.94405C3.62434 4.94405 3.66914 4.95175 3.74643 4.97903C3.79961 4.9978 3.84899 5.01829 3.90965 5.04347C3.94624 5.05866 3.98694 5.07555 4.03505 5.0948C4.27379 5.19029 4.58492 5.29561 5 5.29561C5.41508 5.29561 5.72621 5.19029 5.96495 5.0948C6.01306 5.07555 6.05376 5.05866 6.09035 5.04347C6.15101 5.01829 6.20039 4.9978 6.25357 4.97903C6.33086 4.95175 6.37566 4.94405 6.40625 4.94405C6.4679 4.94405 6.51786 4.94688 6.55785 4.9512C6.52849 4.99548 6.48838 5.04808 6.43714 5.10785C6.34837 5.21142 6.24791 5.3121 6.15876 5.40125L6.05625 5.50376V5.64874C6.05625 7.50741 6.80187 8.89715 7.52944 9.89757C7.80632 10.2783 8.08648 10.6099 8.31682 10.8826C8.38609 10.9646 8.45085 11.0413 8.50966 11.1124C8.55827 11.1711 8.60221 11.2253 8.6415 11.2753H1.3585C1.39779 11.2253 1.44173 11.1711 1.49034 11.1124C1.54915 11.0413 1.61391 10.9646 1.68318 10.8826C1.91352 10.6099 2.19368 10.2783 2.47056 9.89757C3.19813 8.89715 3.94375 7.50741 3.94375 5.64874Z" stroke="#0E848E" stroke-width="0.7"/>
</svg>
