<svg width="20" height="20" viewBox="0 0 20 20" fill="none" xmlns="http://www.w3.org/2000/svg">
<g clip-path="url(#clip0_294_115)">
<path d="M19.7531 12.2857C19.7531 16.5393 16.6855 20 12.915 20H2.78433C2.36454 20 2.02455 19.6164 2.02455 19.1428C2.02455 18.6692 2.36454 18.2857 2.78433 18.2857H12.915C15.8477 18.2857 18.2336 15.5943 18.2336 12.2857C18.2336 8.97717 15.8478 6.28578 12.915 6.28578H2.59347L5.34862 9.394C5.6459 9.72933 5.6459 10.2715 5.34862 10.6068C5.20046 10.774 5.00576 10.8586 4.81203 10.8586C4.61734 10.8586 4.42264 10.7751 4.27544 10.6068L0.222956 6.03506C-0.0743187 5.69969 -0.0743187 5.15757 0.222956 4.8222L4.2735 0.251526C4.57077 -0.0838419 5.05132 -0.0838419 5.34859 0.251526C5.64587 0.586893 5.64587 1.12902 5.34859 1.46438L2.59344 4.57257H12.915C16.6855 4.57257 19.753 8.03322 19.753 12.2868L19.7531 12.2857Z" fill="black"/>
</g>
<defs>
<clipPath id="clip0_294_115">
<rect width="20" height="20" fill="white"/>
</clipPath>
</defs>
</svg>
