<svg width="16" height="16" viewBox="0 0 24 24" fill="none" xmlns="http://www.w3.org/2000/svg">
<path d="M11.5 4C10.5717 4 9.6815 4.36875 9.02513 5.02513C8.36875 5.6815 8 6.57174 8 7.5C8 8.42826 8.36875 9.3185 9.02513 9.97487C9.6815 10.6313 10.5717 11 11.5 11C12.4283 11 13.3185 10.6313 13.9749 9.97487C14.6313 9.3185 15 8.42826 15 7.5C15 6.57174 14.6313 5.6815 13.9749 5.02513C13.3185 4.36875 12.4283 4 11.5 4ZM6 7.5C6 6.04131 6.57946 4.64236 7.61091 3.61091C8.64236 2.57946 10.0413 2 11.5 2C12.9587 2 14.3576 2.57946 15.3891 3.61091C16.4205 4.64236 17 6.04131 17 7.5C17 8.95869 16.4205 10.3576 15.3891 11.3891C14.3576 12.4205 12.9587 13 11.5 13C10.0413 13 8.64236 12.4205 7.61091 11.3891C6.57946 10.3576 6 8.95869 6 7.5ZM18 14C17.31 14 16.75 14.56 16.75 15.25V16H22.499V22.5H13.499V16H14.75V15.25C14.75 14.6081 14.9402 13.9805 15.2964 13.4465C15.6526 12.9125 16.159 12.496 16.7517 12.2495C17.3444 12.0029 17.9968 11.9374 18.6267 12.0612C19.2566 12.185 19.8357 12.4925 20.291 12.945L21.001 13.65L19.591 15.068L18.881 14.363C18.7653 14.2474 18.628 14.1558 18.4768 14.0935C18.3256 14.0312 18.1635 13.9994 18 14ZM15.499 18V20.5H20.499V18H15.499ZM8 16C6.93913 16 5.92172 16.4214 5.17157 17.1716C4.42143 17.9217 4 18.9391 4 20H11.55V22H2V20C2 18.4087 2.63214 16.8826 3.75736 15.7574C4.88258 14.6321 6.4087 14 8 14H11.5V16H8Z" fill="#000"/>
</svg>
