<svg width="20" height="20" viewBox="0 0 3 5" fill="none" xmlns="http://www.w3.org/2000/svg">
<path d="M1.57101 0.0399148C1.5355 -0.0133049 1.4645 -0.0133049 1.42899 0.0399148C1.12722 0.508249 0 2.33901 0 3.20117C0 4.19106 0.674556 5 1.5 5C2.32544 5 3 4.19106 3 3.20117C3 2.33901 1.87278 0.508249 1.57101 0.0399148ZM2.00592 4.37201C1.98817 4.38265 1.97041 4.38265 1.95266 4.38265C1.89941 4.38265 1.84615 4.34007 1.8284 4.28685C1.80178 4.2017 1.83728 4.11655 1.89941 4.07398C2.42308 3.81852 2.3787 3.05216 2.36982 3.04151C2.36095 2.95636 2.4142 2.87121 2.49408 2.87121C2.56509 2.86056 2.63609 2.92443 2.63609 3.02022C2.6716 3.36083 2.56509 4.09526 2.00592 4.37201Z" fill="#53A9E1"/>
</svg>
