<svg width="720" height="719" viewBox="0 0 720 719" fill="none" xmlns="http://www.w3.org/2000/svg">
<g clip-path="url(#clip0_1083_2707)">
<path d="M586.8 -80.9993C581.627 -81.0526 576.88 -78.1993 574.587 -73.6393L516 43.1607L384.8 61.8274C373.787 63.4274 369.387 76.7607 377.387 84.3874L478.853 175.241L453.44 303.507C451.573 314.334 463.12 322.574 472.987 317.454L586.667 256.867L700.96 317.481C710.827 322.547 722.293 314.334 720.48 303.561L695.36 175.294L795.893 84.4141C803.893 76.7874 799.52 63.4274 788.48 61.8541L657.387 43.1874L598.72 -73.6126C596.48 -78.0659 591.867 -80.9459 586.8 -80.9993ZM586.667 -37.9326L636.347 61.0007C638.293 64.9474 642.107 67.6674 646.48 68.2807L757.627 84.1474L671.573 161.214C668.373 164.201 666.96 168.574 667.707 172.841L689.387 281.641L592.96 230.254C589.04 228.227 584.373 228.227 580.427 230.254L484.693 281.614L506.64 172.814C507.387 168.547 505.92 164.147 502.773 161.134L415.787 84.0674L526.88 68.2274C531.28 67.6141 535.067 64.8941 537.013 60.9741L586.667 -37.9326ZM440 399.001C418.08 399.001 400 417.081 400 439.001V679.001C400 700.921 418.08 719.001 440 719.001H680C701.92 719.001 720 700.921 720 679.001V439.001C720 417.081 701.92 399.001 680 399.001H440ZM440 425.667H680C687.627 425.667 693.333 431.374 693.333 439.001V679.001C693.333 686.627 687.627 692.334 680 692.334H440C432.373 692.334 426.667 686.627 426.667 679.001V439.001C426.667 431.374 432.373 425.667 440 425.667ZM40 -0.999268C18.08 -0.999268 0 17.0807 0 39.0007V279.001C0 300.921 18.08 319.001 40 319.001H280C301.92 319.001 320 300.921 320 279.001V39.0007C320 17.0807 301.92 -0.999268 280 -0.999268H40ZM40 25.6674H280C287.627 25.6674 293.333 31.3741 293.333 39.0007V279.001C293.333 286.627 287.627 292.334 280 292.334H40C32.3733 292.334 26.6667 286.627 26.6667 279.001V39.0007C26.6667 31.3741 32.3733 25.6674 40 25.6674ZM40 399.001C18.08 399.001 0 417.081 0 439.001V679.001C0 700.921 18.08 719.001 40 719.001H280C301.92 719.001 320 700.921 320 679.001V439.001C320 417.081 301.92 399.001 280 399.001H40ZM40 425.667H280C287.627 425.667 293.333 431.374 293.333 439.001V679.001C293.333 686.627 287.627 692.334 280 692.334H40C32.3733 692.334 26.6667 686.627 26.6667 679.001V439.001C26.6667 431.374 32.3733 425.667 40 425.667Z" fill="black"/>
<rect width="437" height="402" transform="translate(363 -81)" fill="white"/>
<g clip-path="url(#clip1_1083_2707)">
<path d="M986.8 -79.9993C981.627 -80.0526 976.88 -77.1993 974.587 -72.6393L916 44.1607L784.8 62.8274C773.787 64.4274 769.387 77.7607 777.387 85.3874L878.853 176.241L853.44 304.507C851.573 315.334 863.12 323.574 872.987 318.454L986.667 257.867L1100.96 318.481C1110.83 323.547 1122.29 315.334 1120.48 304.561L1095.36 176.294L1195.89 85.4141C1203.89 77.7874 1199.52 64.4274 1188.48 62.8541L1057.39 44.1874L998.72 -72.6126C996.48 -77.0659 991.867 -79.9459 986.8 -79.9993ZM986.667 -36.9326L1036.35 62.0007C1038.29 65.9474 1042.11 68.6674 1046.48 69.2807L1157.63 85.1474L1071.57 162.214C1068.37 165.201 1066.96 169.574 1067.71 173.841L1089.39 282.641L992.96 231.254C989.04 229.227 984.373 229.227 980.427 231.254L884.693 282.614L906.64 173.814C907.387 169.547 905.92 165.147 902.773 162.134L815.787 85.0674L926.88 69.2274C931.28 68.6141 935.067 65.8941 937.013 61.9741L986.667 -36.9326ZM840 400.001C818.08 400.001 800 418.081 800 440.001V680.001C800 701.921 818.08 720.001 840 720.001H1080C1101.92 720.001 1120 701.921 1120 680.001V440.001C1120 418.081 1101.92 400.001 1080 400.001H840ZM840 426.667H1080C1087.63 426.667 1093.33 432.374 1093.33 440.001V680.001C1093.33 687.627 1087.63 693.334 1080 693.334H840C832.373 693.334 826.667 687.627 826.667 680.001V440.001C826.667 432.374 832.373 426.667 840 426.667ZM440 0.000732422C418.08 0.000732422 400 18.0807 400 40.0007V280.001C400 301.921 418.08 320.001 440 320.001H680C701.92 320.001 720 301.921 720 280.001V40.0007C720 18.0807 701.92 0.000732422 680 0.000732422H440ZM440 26.6674H680C687.627 26.6674 693.333 32.3741 693.333 40.0007V280.001C693.333 287.627 687.627 293.334 680 293.334H440C432.373 293.334 426.667 287.627 426.667 280.001V40.0007C426.667 32.3741 432.373 26.6674 440 26.6674ZM440 400.001C418.08 400.001 400 418.081 400 440.001V680.001C400 701.921 418.08 720.001 440 720.001H680C701.92 720.001 720 701.921 720 680.001V440.001C720 418.081 701.92 400.001 680 400.001H440ZM440 426.667H680C687.627 426.667 693.333 432.374 693.333 440.001V680.001C693.333 687.627 687.627 693.334 680 693.334H440C432.373 693.334 426.667 687.627 426.667 680.001V440.001C426.667 432.374 432.373 426.667 440 426.667Z" fill="black"/>
</g>
</g>
<defs>
<clipPath id="clip0_1083_2707">
<rect width="720" height="719" fill="white"/>
</clipPath>
<clipPath id="clip1_1083_2707">
<rect width="320" height="320" fill="white" transform="translate(400)"/>
</clipPath>
</defs>
</svg>
