<svg width="14" height="14" viewBox="0 0 14 14" fill="none" xmlns="http://www.w3.org/2000/svg">
<path d="M13.2084 2.43761H10.6302V1.38915C10.6302 0.622847 10.0073 0 9.24384 0H4.44777C3.68147 0 3.06145 0.622847 3.06145 1.38915V2.43761H0.483183C0.217046 2.43761 0 2.65466 0 2.92079C0 3.18692 0.217055 3.40397 0.483183 3.40397H1.40142L1.99595 11.6275C2.09221 12.9591 3.21145 14 4.54692 14H9.14947C10.4829 14 11.604 12.9591 11.7004 11.6275L12.295 3.40397H13.2132C13.4793 3.40397 13.6964 3.18692 13.6964 2.92079C13.6964 2.6556 13.4745 2.43761 13.2084 2.43761ZM4.02796 1.39198C4.02796 1.15982 4.2167 0.969192 4.44791 0.969192H9.24109C9.47324 0.969192 9.66104 1.15794 9.66104 1.39198V2.44044H4.0281L4.02796 1.39198ZM10.7321 11.5577C10.6717 12.3862 9.9762 13.0336 9.14479 13.0336H4.54513C3.71654 13.0336 3.0182 12.3862 2.9578 11.5577L2.36798 3.40395H11.3182L10.7321 11.5577Z" fill="white"/>
<path d="M5.56912 5.37891C5.30298 5.37891 5.08594 5.59596 5.08594 5.86209V10.5543C5.08594 10.8204 5.30299 11.0375 5.56912 11.0375C5.83525 11.0375 6.0523 10.8204 6.0523 10.5543V5.86209C6.0523 5.59689 5.83525 5.37891 5.56912 5.37891Z" fill="white"/>
<path d="M8.1199 5.37891C7.85376 5.37891 7.63672 5.59596 7.63672 5.86209V10.5543C7.63672 10.8204 7.85377 11.0375 8.1199 11.0375C8.38603 11.0375 8.60308 10.8204 8.60308 10.5543V5.86209C8.60308 5.59689 8.38792 5.37891 8.1199 5.37891Z" fill="white"/>
</svg>
