<svg width="31" height="31" viewBox="0 0 31 31" fill="none" xmlns="http://www.w3.org/2000/svg">
<rect x="1" y="1" width="29" height="29" rx="14.5" fill="white"/>
<rect x="1" y="1" width="29" height="29" rx="14.5" stroke="#0E848E" stroke-width="2"/>
<g clip-path="url(#clip0_21_1092)">
<path fillRule="evenodd" clip-rule="evenodd" d="M19.3953 14.4829C19.6648 14.7528 19.8162 15.1186 19.8162 15.5C19.8162 15.8815 19.6648 16.2473 19.3953 16.5171L13.9682 21.9461C13.6982 22.216 13.3321 22.3676 12.9503 22.3675C12.5685 22.3674 12.2025 22.2156 11.9326 21.9456C11.6627 21.6756 11.5111 21.3095 11.5112 20.9277C11.5113 20.546 11.6631 20.1799 11.9331 19.91L16.343 15.5L11.9331 11.0901C11.6708 10.8187 11.5255 10.4552 11.5286 10.0779C11.5317 9.70049 11.6829 9.33942 11.9496 9.07244C12.2164 8.80546 12.5773 8.65392 12.9547 8.65046C13.332 8.64701 13.6957 8.79191 13.9673 9.05396L19.3962 14.482L19.3953 14.4829Z" fill="#0E848E"/>
</g>
<defs>
<clipPath id="clip0_21_1092">
<rect width="23.0286" height="23.0286" fill="white" transform="translate(3.98584 27.0144) rotate(-90)"/>
</clipPath>
</defs>
</svg>
