<svg width="32" height="32" viewBox="0 0 32 32" fill="none" xmlns="http://www.w3.org/2000/svg">
<path d="M4 6.6665H9.33333M28 6.6665H14.6667M4 15.9998H20M28 15.9998H25.3333M4 25.3332H6.66667M28 25.3332H12" stroke="#627383" stroke-width="2.66667" strokeLinecap="round"/>
<path d="M11.9999 9.33333C13.4727 9.33333 14.6666 8.13943 14.6666 6.66667C14.6666 5.19391 13.4727 4 11.9999 4C10.5272 4 9.33325 5.19391 9.33325 6.66667C9.33325 8.13943 10.5272 9.33333 11.9999 9.33333Z" stroke="#627383" stroke-width="2.66667" strokeLinecap="round"/>
<path d="M22.6667 18.6668C24.1394 18.6668 25.3333 17.4729 25.3333 16.0002C25.3333 14.5274 24.1394 13.3335 22.6667 13.3335C21.1939 13.3335 20 14.5274 20 16.0002C20 17.4729 21.1939 18.6668 22.6667 18.6668Z" stroke="#627383" stroke-width="2.66667" strokeLinecap="round"/>
<path d="M9.33341 27.9998C10.8062 27.9998 12.0001 26.8059 12.0001 25.3332C12.0001 23.8604 10.8062 22.6665 9.33341 22.6665C7.86066 22.6665 6.66675 23.8604 6.66675 25.3332C6.66675 26.8059 7.86066 27.9998 9.33341 27.9998Z" stroke="#627383" stroke-width="2.66667" strokeLinecap="round"/>
</svg>
